<?xml version="1.0" encoding="iso-8859-1"?>
<!-- Uploaded to: SVG Repo, www.svgrepo.com, Generator: SVG Repo Mixer Tools -->
<!DOCTYPE svg PUBLIC "-//W3C//DTD SVG 1.1//EN" "http://www.w3.org/Graphics/SVG/1.1/DTD/svg11.dtd">
<svg fill="#000000" version="1.1" id="Capa_1" xmlns="http://www.w3.org/2000/svg" xmlns:xlink="http://www.w3.org/1999/xlink" 
	 width="800px" height="800px" viewBox="0 0 190.481 190.48"
	 xml:space="preserve">
<g>
	<path d="M138.94,28.291c-8.751-1.312-10.536,6.178-15.68,10.295c-6.456,1.623-15.879-11.055-19.706-14.463
		c-3.896-3.468-8.068-6.624-12.375-9.556c-6.426-4.377-14.784-8.168-22.372-5.45c-0.689-6.158-8.078-9.331-13.55-9.106
		c-6.807,0.28-12.748,5.285-14.405,11.796c-2.055,8.073,2.999,14.53,10.187,17.348c5.802,2.275,15.304,0.36,15.65-6.712
		c4.622,0.249,8.786,1.067,13.138,3.178c2.58,1.252,4.93,2.951,7.086,4.826c1.247,1.085,2.137,2.456,3.117,3.733
		c0.028,0.128,0.042,0.256,0.101,0.382c2.659,5.642-17.363,21.762-20.412,25.176c-6.014,6.733-9.514,14.619-12.04,23.122
		c-1.807,6.083-0.536,10.837,1.825,16.348c4.13,9.641,6.697,0.952,12.784,16.649c2.412,6.22,3.712,18.731,2.589,25.042
		c-0.056,0.314-0.022,0.595,0.055,0.854c-6.394,6.246-19.212,6.495-22.071,15.962c-0.647,2.143,1.281,3.771,2.826,4.766
		c4.571,2.94,1.754,6.753,1.656,10.838c-0.52-0.117-1.046-0.237-1.545-0.345c-1.656-0.353-3.249-0.732-4.909-0.28
		c-0.666-0.282-1.446-0.164-1.589,0.758c-0.734,4.744-1.212,9.458-1.66,14.241c-0.112,1.199,1.015,1.892,2.024,2.023
		c21.047,2.751,42.308-2.907,63.531-1.61c10.889,0.664,15.057-1.679,14.233-13.429c-0.151-2.154-2.446-2.745-3.75-1.769
		c-20.28-10.867-24.531-21.714-12.725-32.541c1.144-1.442,2.389-2.984,2.877-4.758c2.542-9.242,7.378-14.558,11.873-22.676
		c8.432-15.228,11.242-39.999,5.629-56.604c3.294-0.077,6.803-0.885,9.611-2.146c3.663-1.645,6.259-5.965,7.17-9.798
		c0.088-0.373-0.438-0.508-0.566-0.156c-1.57,4.301-5.26,4.965-9.143,6.349c-3.298,1.176-6.55,1.363-9.987,1.687
		c-1.422,0.134-2.004,1.219-1.845,2.221c-0.333,0.497-0.476,1.152-0.285,1.939c9.273,38.319-11.319,63.283-26.32,95.371
		c-6.049,12.938,11.088,25.178,22.757,23.788c-0.688,9.664-5.227,8.076-13.497,7.526c-6.864-0.456-14.169,0.562-21.023,1.01
		c-7.399,0.482-14.768,1.408-22.166,1.931c-11.57,0.819-12.716-0.552-13.818-9.151c1.237,0.197,2.513,0.265,3.743,0.403
		c1.035,0.117,2.084,0.128,3.08-0.096c0.94,0.216,1.968-0.342,1.903-1.435c0.034-0.286,0.007-0.572-0.119-0.836
		c-0.884-3.87,1.923-7.534,0.73-11.488c-0.92-3.047-6.929-3.013-4.665-7.441c3.81-7.457,17.064-4.964,20.557-13.044
		c0.398-0.182,0.718-0.538,0.83-1.127c1.791-9.417-0.355-17.657-3.767-26.591c-0.83-2.174-3.095-7.988-4.649-9.691
		c-13.71-15.025-7.452-28.709,3.43-42.242c4.644-5.775,24.244-18.853,20.959-28.232c-0.198-5.68-8.177-10.343-12.541-12.678
		c-4.918-2.631-12.39-5.213-17.534-1.874c-0.671,0.436-0.537,1.353,0.094,1.665c-3.238,3.591-7.015,4.087-11.956,2.342
		c-5.223-1.844-7.985-7.036-6.92-12.388c0.924-4.644,5.147-7.769,9.508-8.836c2.46-0.602,4.926-0.019,7.061,1.253
		c2.55,1.519,2.87,4.223,4.353,6.483c0.478,0.728,1.317,0.773,1.925,0.406c16.433-0.763,30.138,11.551,40.66,22.856
		c4.051,4.353,10.485,12.246,16.329,6.691c1.621-0.834,2.955-2.381,4.165-4.169c2.933-4.334,6.8-6.165,11.92-3.861
		c3.969,1.786,4.926,5.862,5.822,9.664c0.217,0.922,1.735,1.233,2.147,0.281C152.426,35.647,145.821,29.323,138.94,28.291z"/>
	<path d="M80.145,152.263c-0.393-0.755-1.449-0.994-2.158-0.565c-3.609,2.181-6.764,4.997-10.528,6.942
		c-0.572,0.296-0.842,1.043-0.669,1.646c1.396,4.888,2.021,9.1,0.747,14.023c-0.764,0.551-0.486,1.729,0.181,2.223
		c4.956,3.658,11.328-2.563,13.327-6.749C83.627,164.373,82.836,157.431,80.145,152.263z M77.372,167.26
		c-0.799,2.127-2.054,4.159-4.016,5.374c-1.209,0.748-2.651,0.806-4.036,1.062c1.871-4.306,1.594-8.351,0.545-13.004
		c2.942-1.405,5.654-3.16,8.241-5.13C79.318,159.331,78.733,163.64,77.372,167.26z"/>
	<path d="M107.478,76.116c-6.084,1.989-17.011,5.391-16.992,13.619c0.024,10.743,12.301,17.995,16.891,26.827
		c0.417,0.804,1.896,0.701,2.041-0.266c0.001-0.005,0-0.009,0.001-0.014c0.541,0.032,1.097-0.167,1.472-0.763
		c3.083-4.891,4.146-11.078,5.836-16.568c1.589-5.161,3.959-10.769,4.604-16.167C122.53,72.753,114.69,73.758,107.478,76.116z
		 M115.996,87.585c-2.226,7.512-3.482,17.075-6.995,24.289c-0.887-2.698-2.81-5.066-4.794-7.299
		c-2.659-2.994-5.933-5.377-8.248-8.688c-5.054-7.229,2.513-12.018,8.263-14.285c2.35-0.927,4.892-1.56,7.312-2.29
		C118.674,77.156,117.484,82.562,115.996,87.585z"/>
</g>
</svg>